<svg version="1" xmlns="http://www.w3.org/2000/svg" width="840" height="840" viewBox="0 0 630.000000 630.000000"><path d="M0 315v315h630V0H0v315zM174.6 72.3c7.1 7.3 16.5 17.1 20.9 21.8 8.2 8.7 21 22.1 39.5 41.5 5.8 6.1 14.1 14.8 18.4 19.5 10.7 11.4 42.7 44.8 55.8 58.4 5.8 6 12.6 13.1 15 15.6 2.4 2.5 10.8 11.4 18.8 19.8s20.2 21.2 27.1 28.4c17.7 18.6 21.9 23.1 21.9 23.9 0 1.3-2.7 1-24.5-2.8-11.4-1.9-21.3-3.4-22-3.2-1.3.3 10 15.2 12.9 17 .6.4.8.8.4.8-.5 0 0 .8 1 1.8 1.9 2 2.9 3.1 23.6 28.7 8.1 9.9 19 23.4 24.4 29.9 9 11 12.1 15.2 12.2 16.7 0 .3-15.9-1.6-35.2-4.2-19.4-2.6-37.2-5-39.5-5.3-2.8-.4-4.3-.2-4.3.5 0 .6 4.6 7.7 10.3 15.8 5.7 8 11.2 16.1 12.2 17.8 1.1 1.8 2.2 3.3 2.6 3.3.3 0 1.1 1.1 1.7 2.4.6 1.3 5.2 8.2 10.4 15.4 5.1 7.2 12.2 17.4 15.8 22.7 10.5 15.4 35 50.9 36.3 52.5.7.8 2.5 3.5 4.1 6 1.6 2.4 3.3 4.9 3.7 5.4.5.6 2.9 4 5.3 7.6 26.7 39.1 27.9 41 25.7 41-.8 0-19-18.5-34.6-35.1-3.8-4.1-17.6-18.4-30.5-31.9-13-13.5-26.6-27.7-30.1-31.5-3.6-3.9-8.3-8.8-10.5-11-9-9.4-43-44.9-44.4-46.5-.8-.9-10.5-11.1-21.6-22.6-11-11.5-23.2-24.2-27-28.3-3.8-4-10.3-10.8-14.4-15.1-24.6-25.4-40-42-40-42.9 0-.4 2.1-.4 4.8 0 5.5.9 33.3 6.1 47.7 8.9 15.3 2.9 16.5 3.1 16.5 2.4 0-.7-2.2-3.2-15.5-17.9-4.5-5-13.1-14.4-19.1-21-6-6.6-11.1-12.2-11.4-12.5-.3-.3-2.3-2.5-4.4-5-2.2-2.5-7.6-8.5-12-13.4-13-14.3-12.1-13-9.8-13.4 1.6-.3 43.3 4.3 57 6.2 1.7.3 3.2.1 3.2-.3 0-.5-3.4-6.2-7.6-12.7-4.2-6.6-8.4-13.3-9.4-14.9-1-1.7-6.4-10.2-12-19-5.7-8.8-14-21.9-18.5-29-4.5-7.2-12.1-19.1-16.8-26.5-4.8-7.4-12.1-19-16.4-25.8-4.3-6.7-10.8-16.8-14.4-22.5-3.7-5.7-9.2-14.5-12.3-19.6-9.2-15.4-7.8-15.1 9 2.2z"/></svg>